HIERARCHY
ROOT Hips
{
 OFFSET 0.000000 0.000000 0.000000
 CHANNELS 6 Xposition Yposition Zposition Yrotation Xrotation Zrotation
 JOINT Chest
 {
  OFFSET 0.000000 9.585900 0.002600
  CHANNELS 3 Yrotation Xrotation Zrotation
  JOINT Chest2
  {
   OFFSET 0.000000 9.601200 -0.005300
   CHANNELS 3 Yrotation Xrotation Zrotation
   JOINT Chest3
   {
    OFFSET 0.000000 9.561800 0.000000
    CHANNELS 3 Yrotation Xrotation Zrotation
    JOINT Chest4
    {
     OFFSET 0.000000 9.552100 0.000000
     CHANNELS 3 Yrotation Xrotation Zrotation
     JOINT Neck
     {
      OFFSET 0.000000 14.453000 0.000000
      CHANNELS 3 Yrotation Xrotation Zrotation
      JOINT Head
      {
       OFFSET 0.000000 8.936500 -0.011300
       CHANNELS 3 Yrotation Xrotation Zrotation
       End Site
       {
        OFFSET 0.000000 17.073600 -0.006000
       }
      }
     }
     JOINT RightCollar
     {
      OFFSET -2.921100 9.558500 0.000000
      CHANNELS 3 Yrotation Xrotation Zrotation
      JOINT RightShoulder
      {
       OFFSET -13.519700 0.000000 0.000000
       CHANNELS 3 Yrotation Xrotation Zrotation
       JOINT RightElbow
       {
        OFFSET 0.000000 -29.696600 0.000000
        CHANNELS 3 Yrotation Xrotation Zrotation
        JOINT RightWrist
        {
         OFFSET 0.000000 -24.004700 0.000000
         CHANNELS 3 Yrotation Xrotation Zrotation
         End Site
         {
          OFFSET 0.000000 -17.728500 0.000000
         }
        }
       }
      }
     }
     JOINT LeftCollar
     {
      OFFSET 2.921100 9.558500 0.000000
      CHANNELS 3 Yrotation Xrotation Zrotation
      JOINT LeftShoulder
      {
       OFFSET 13.519700 0.000000 0.000000
       CHANNELS 3 Yrotation Xrotation Zrotation
       JOINT LeftElbow
       {
        OFFSET 0.000000 -29.696600 0.000000
        CHANNELS 3 Yrotation Xrotation Zrotation
        JOINT LeftWrist
        {
         OFFSET 0.000000 -24.004700 0.000000
         CHANNELS 3 Yrotation Xrotation Zrotation
         End Site
         {
          OFFSET 0.000000 -17.728500 0.000000
         }
        }
       }
      }
     }
    }
   }
  }
 }
 JOINT RightHip
 {
  OFFSET -7.771700 -0.012900 -0.001300
  CHANNELS 3 Yrotation Xrotation Zrotation
  JOINT RightKnee
  {
   OFFSET 0.000000 -40.869800 0.001200
   CHANNELS 3 Yrotation Xrotation Zrotation
   JOINT RightAnkle
   {
    OFFSET 0.000000 -39.717900 0.002100
    CHANNELS 3 Yrotation Xrotation Zrotation
    JOINT RightToe
    {
     OFFSET 0.000000 -4.965400 11.033500
     CHANNELS 3 Yrotation Xrotation Zrotation
     End Site
     {
      OFFSET 0.000000 -1.423100 5.872300
     }
    }
   }
  }
 }
 JOINT LeftHip
 {
  OFFSET 7.771700 -0.012900 -0.001300
  CHANNELS 3 Yrotation Xrotation Zrotation
  JOINT LeftKnee
  {
   OFFSET 0.000000 -40.869800 0.001200
   CHANNELS 3 Yrotation Xrotation Zrotation
   JOINT LeftAnkle
   {
    OFFSET 0.000000 -39.717900 0.002100
    CHANNELS 3 Yrotation Xrotation Zrotation
    JOINT LeftToe
    {
     OFFSET 0.000000 -4.965400 11.033500
     CHANNELS 3 Yrotation Xrotation Zrotation
     End Site
     {
      OFFSET 0.000000 -1.423100 5.872300
     }
    }
   }
  }
 }
}
MOTION
Frames: 11
Frame Time: 0.008333
-6.924858 54.451327 24.079711 -178.337690 -32.692137 -10.967762 -1.150792 12.062137 5.446712 -0.416117 7.272073 2.313054 -0.471753 9.021021 2.902373 -0.413621 7.215091 2.323814 5.594577 23.232615 -3.182893 6.866404 -0.422272 -4.775736 1.017329 2.924376 -1.743620 -15.522742 -8.569573 5.170993 34.252337 -74.279090 -19.201475 14.076269 -3.646677 -8.971013 -9.429178 2.682693 -3.505978 5.890910 -1.931683 -2.622277 -72.634276 -66.322203 82.859618 10.720174 -17.621686 -10.271216 -17.429464 -32.977819 7.481351 18.211603 84.150545 15.706686 -0.111824 -14.190102 -0.599893 -0.018317 0.537815 -0.049808 -15.808090 -45.129235 14.135855 171.143615 79.712952 166.617725 -1.343989 -15.658800 1.079640 -0.765662 -2.619641 -0.291031
-6.922633 54.486445 24.073666 -178.337782 -32.647184 -10.979076 -1.148519 12.074843 5.452616 -0.422875 7.268561 2.306991 -0.470183 9.017160 2.899959 -0.406854 7.190831 2.331722 5.595147 23.197000 -3.184642 6.875901 -0.472172 -4.772630 1.027457 2.882891 -1.811473 -15.539191 -8.483358 5.214686 34.372941 -74.272799 -19.281309 14.057961 -3.682535 -8.993321 -9.432567 2.665193 -3.507662 5.891648 -1.930791 -2.595734 -72.636509 -66.350892 82.834268 10.714420 -17.599683 -10.270632 -17.451399 -33.021770 7.515572 18.392654 84.184902 15.889980 -0.138666 -14.269202 -0.569848 -0.020444 0.552906 -0.054323 -15.777991 -45.185838 14.190728 171.127793 79.698739 166.591324 -1.424404 -15.665945 1.134660 -0.765207 -2.615673 -0.288363
-6.917838 54.516227 24.074350 -178.375807 -32.548920 -10.980565 -1.133405 12.073256 5.453149 -0.410653 7.221781 2.316453 -0.468373 9.011789 2.896260 -0.402839 7.166914 2.341043 5.594834 23.162547 -3.185750 6.885709 -0.480841 -4.767875 1.042586 2.840899 -1.884107 -15.559470 -8.422035 5.276945 34.432303 -74.263598 -19.317810 14.087741 -3.701207 -8.989473 -9.434953 2.647007 -3.510323 5.894129 -1.915151 -2.558999 -72.656837 -66.392616 82.828673 10.703105 -17.571805 -10.270195 -17.472751 -33.132255 7.586537 18.543146 84.221717 16.046580 -0.146462 -14.314916 -0.571326 -0.016553 0.560711 -0.049030 -15.731322 -45.296919 14.278003 171.152577 79.691558 166.619675 -1.512506 -15.695390 1.171798 -0.756241 -2.585147 -0.264496
-6.914454 54.549392 24.067091 -178.387935 -32.492830 -10.985393 -1.123760 12.089128 5.454918 -0.409917 7.175502 2.322461 -0.468879 9.033349 2.882925 -0.406055 7.181249 2.328142 5.605946 23.085793 -3.166393 6.882536 -0.606723 -4.749598 1.068275 2.758596 -1.938106 -15.582221 -8.357353 5.343196 34.554826 -74.205106 -19.381194 14.073367 -3.768134 -9.046975 -9.423682 2.588475 -3.484627 5.899012 -1.891985 -2.524154 -72.686288 -66.427494 82.833894 10.694294 -17.541538 -10.271614 -17.496228 -33.187971 7.627197 18.764347 84.253591 16.265105 -0.145822 -14.382328 -0.578963 -0.023174 0.583986 -0.041399 -15.708925 -45.366232 14.331193 171.103752 79.672727 166.562683 -1.566975 -15.690854 1.216160 -0.758853 -2.593545 -0.282980
-6.908068 54.586197 24.053266 -178.399527 -32.477840 -11.006558 -1.103308 12.133682 5.474456 -0.411279 7.142303 2.325564 -0.466963 9.030144 2.879906 -0.411366 7.210458 2.304294 5.615649 23.019395 -3.142931 6.867650 -0.705325 -4.732278 1.092490 2.684229 -1.993836 -15.606696 -8.264235 5.401638 34.681428 -74.180195 -19.446476 14.038715 -3.829794 -9.112592 -9.415871 2.543199 -3.461686 5.927916 -1.841271 -2.476046 -72.805522 -66.475491 82.926449 10.699999 -17.508680 -10.280065 -17.516371 -33.190987 7.678115 19.574033 84.258906 17.062017 -0.212807 -14.443316 -0.587779 -0.037264 0.607961 -0.033740 -15.721009 -45.392291 14.395804 171.010498 79.642981 166.445333 -1.559125 -15.637284 1.256318 -0.819329 -2.655728 -0.308955
-6.909464 54.617764 24.043598 -178.388821 -32.419322 -10.987770 -1.117585 12.140697 5.442279 -0.411042 7.133100 2.321133 -0.467006 8.999402 2.884623 -0.418703 7.237251 2.277033 5.637523 22.962165 -3.110089 6.837129 -0.801332 -4.716558 1.113365 2.622976 -2.001853 -15.590703 -8.149999 5.378388 34.717352 -74.239263 -19.454605 14.008372 -3.926932 -9.166066 -9.404046 2.494808 -3.442061 5.938508 -1.824963 -2.441737 -72.818358 -66.501877 82.899671 10.694549 -17.488243 -10.249537 -17.535372 -33.262316 7.672054 19.872841 84.300560 17.359239 -0.216247 -14.494583 -0.593919 -0.031476 0.602870 -0.026768 -15.661589 -45.456247 14.393127 171.068106 79.644073 166.501444 -1.649008 -15.679490 1.300187 -0.787168 -2.618847 -0.289930
-6.912507 54.643313 24.042068 -178.396873 -32.300962 -10.942840 -1.135200 12.054874 5.399212 -0.414354 7.156816 2.308288 -0.465880 8.990236 2.876992 -0.417214 7.230379 2.271074 5.633440 22.897568 -3.093980 6.816302 -0.895788 -4.695179 1.131727 2.572517 -2.015979 -15.578128 -8.081642 5.385911 34.718965 -74.272440 -19.452829 13.961416 -4.038204 -9.186736 -9.382574 2.456512 -3.430292 5.936307 -1.808233 -2.407762 -72.814427 -66.537440 82.866955 10.692825 -17.475779 -10.219135 -17.558666 -33.410015 7.670335 20.199725 84.348377 17.686281 -0.220902 -14.534238 -0.600645 -0.026746 0.594812 -0.023980 -15.543736 -45.563739 14.376832 171.313961 79.689609 166.779203 -1.809749 -15.819159 1.338064 -0.666682 -2.473891 -0.241922
-6.910652 54.676356 24.030275 -178.394945 -32.256353 -10.928724 -1.138403 12.044015 5.382069 -0.411213 7.181979 2.297135 -0.471330 9.017441 2.850725 -0.412792 7.174874 2.292212 5.591973 22.806704 -3.097922 6.819795 -0.971817 -4.672436 1.155854 2.489427 -2.164623 -15.582441 -7.937395 5.504185 34.644385 -74.296053 -19.351911 13.904087 -4.166923 -9.232192 -9.362647 2.420732 -3.425370 5.940661 -1.773374 -2.370021 -72.789732 -66.625369 82.798530 10.657827 -17.481723 -10.172827 -17.572008 -33.463258 7.663519 20.456432 84.384646 17.952464 -0.216339 -14.570833 -0.612641 -0.023436 0.582361 -0.023058 -15.503073 -45.597960 14.383866 171.433823 79.706412 166.896215 -1.870328 -15.865220 1.359216 -0.633515 -2.429005 -0.240793
-6.907767 54.706704 24.023491 -178.401644 -32.177612 -10.908003 -1.135497 12.036075 5.361785 -0.413299 7.172429 2.290591 -0.472325 8.967692 2.860777 -0.413300 7.172514 2.290562 5.553241 22.741636 -3.113165 6.804756 -1.063805 -4.652064 1.169416 2.434952 -2.277175 -15.574010 -7.814748 5.573102 34.511504 -74.338409 -19.196988 13.844387 -4.294488 -9.269565 -9.325684 2.385646 -3.459157 5.933828 -1.724311 -2.315506 -72.796660 -66.689031 82.771443 10.669497 -17.477857 -10.155215 -17.603080 -33.553375 7.668935 20.704894 84.419600 18.208615 -0.203306 -14.599956 -0.630856 -0.028626 0.563427 -0.019385 -15.482427 -45.673640 14.419983 171.533497 79.717698 166.972820 -1.928314 -15.887249 1.403357 -0.626920 -2.402352 -0.238515
-6.903721 54.737100 24.017845 -178.404541 -32.091875 -10.887717 -1.130372 12.024280 5.343606 -0.415336 7.159800 2.283317 -0.474993 8.951810 2.851723 -0.415176 7.159727 2.283465 5.532688 22.653284 -3.102597 6.777059 -1.165005 -4.631812 1.192907 2.362922 -2.340086 -15.570129 -7.702661 5.619581 34.442615 -74.397130 -19.133297 13.759256 -4.411851 -9.271274 -9.310416 2.351533 -3.431650 5.989280 -1.690960 -2.297488 -72.833735 -66.772446 82.743347 10.681311 -17.474683 -10.153064 -17.647994 -33.647260 7.678441 20.835595 84.454633 18.345358 -0.186829 -14.625123 -0.649341 -0.027725 0.555148 -0.021042 -15.489864 -45.770760 14.471230 171.570101 79.710970 166.962761 -1.949904 -15.847085 1.462268 -0.668505 -2.435036 -0.248810
-6.897969 54.763252 24.020407 -178.438123 -31.954989 -10.851265 -1.111393 12.004189 5.319798 -0.418454 7.098539 2.278707 -0.466858 8.966831 2.819150 -0.412567 7.127429 2.276371 5.522856 22.548327 -3.063982 6.745524 -1.263866 -4.611710 1.215822 2.282997 -2.378247 -15.565119 -7.588066 5.670948 34.380339 -74.459952 -19.077498 13.679078 -4.523133 -9.268235 -9.294266 2.314615 -3.375046 6.023340 -1.670218 -2.283181 -72.816475 -66.865525 82.682088 10.687578 -17.477583 -10.152629 -17.695778 -33.800882 7.720737 20.915357 84.490903 18.422216 -0.173159 -14.641966 -0.663849 -0.029026 0.550870 -0.022831 -15.496676 -45.917541 14.531618 171.620612 79.717048 166.982727 -1.963795 -15.833005 1.503090 -0.694589 -2.436015 -0.252254
